<svg width="392" height="150" viewBox="0 0 392 150" fill="none" xmlns="http://www.w3.org/2000/svg">
    <path d="M37.3047 81.8383L41.0547 53.5961L8.47656 30.9789L38.2422 41.057L45.2734 30.2758L70.9375 14.3383L127.539 45.5101L130.469 93.0883L105.273 128.127L85.3516 131.174L95.6641 112.307V94.143L88.1641 79.9633L80.5469 74.9242L68.8281 86.9945V99.7679L59.6875 108.323L48.0859 109.729L42.9297 112.659L34.4922 109.963L30.9766 97.307L37.3047 88.4008V81.8383Z" fill="white"/>
    <path d="M89.3358 30.7445C83.1248 29.4554 76.328 29.807 76.328 29.807C76.328 29.807 74.1014 40.1195 60.2733 42.8148C60.3905 42.8148 78.5545 49.0257 89.3358 30.7445Z" fill="#94A6C3"/>
    <path d="M94.9607 124.26C102.461 118.401 108.086 110.315 110.664 101.174C110.781 100.823 111.836 100.237 112.539 99.768C113.711 99.0649 114.883 98.479 115.117 97.5415C115.586 94.8462 115.82 92.0337 115.82 89.2212C115.82 88.1665 114.765 87.1118 113.711 86.0571C112.89 85.354 112.07 84.5337 112.07 83.9477C110.898 73.2837 105.976 63.3227 98.1248 56.0571L97.3044 56.8774C104.922 64.0258 109.844 73.7524 110.898 84.0649C111.015 85.0024 111.953 85.9399 112.89 86.8774C113.711 87.5805 114.648 88.6352 114.648 89.104C114.648 91.7993 114.414 94.4946 113.945 97.1899C113.828 97.6587 112.773 98.1274 111.953 98.5962C110.781 99.1821 109.726 99.768 109.492 100.706C106.679 110.666 100.234 119.338 91.6794 124.963C93.2029 121.682 98.0076 111.018 100.586 105.627L100.117 88.2837L85.2341 73.8696L76.7966 75.0415L67.5388 90.0415C67.5388 90.0415 71.8748 95.5493 65.781 101.995C59.8044 108.323 55.1169 109.729 55.1169 109.729L50.781 107.385C52.0701 105.745 54.6482 103.284 56.6404 101.643C60.0388 98.8305 63.4373 98.5962 63.4373 95.5493C63.5544 89.2212 56.7576 90.979 56.7576 90.979L54.2966 93.3227L53.2419 101.995L48.0857 108.44L47.4998 108.323L39.0623 106.448C39.0623 106.448 44.2185 103.752 45.0388 100.706C45.8591 97.7758 43.3982 88.0493 43.281 87.4633C43.3982 87.5805 45.7419 89.5727 46.7966 92.854C48.6716 87.6977 51.1326 82.7758 51.8357 82.3071C52.5388 81.8383 62.031 76.7993 62.031 76.7993L58.8669 85.1196L61.2107 83.8305L66.8357 70.0024C66.8357 70.0024 72.3435 67.3071 76.4451 67.3071C83.8279 67.1899 94.7263 58.1665 89.8044 41.9946C91.2107 42.5805 115.586 54.768 119.804 78.6743C122.968 97.0727 112.539 114.299 94.9607 124.26Z" fill="#94A6C3"/>
    <path d="M67.0703 33.3227C69.7656 30.1586 68.7109 25.4711 68.7109 25.4711L60.8594 37.0727C60.7422 37.0727 63.6719 37.1898 67.0703 33.3227Z" fill="#1B314F"/>
    <path d="M40.7031 96.7214L41.6406 92.0339C41.6406 92.0339 37.7734 98.8307 37.4218 99.7682C37.0702 100.823 37.6562 102.698 39.1796 102.581C40.7031 102.464 42.5781 100.237 42.5781 98.5964C42.5781 96.487 40.7031 96.7214 40.7031 96.7214Z" fill="#1B314F"/>
    <path d="M110.312 22.19C110.312 22.19 116.172 22.4244 122.266 23.1275C108.555 12.3462 95.5468 9.18217 84.9999 9.18217C70.4686 9.18217 60.6249 15.1587 60.039 15.5103L64.6093 8.24467C64.6093 8.24467 46.328 6.48686 39.8827 25.8228C38.2421 21.7212 36.7186 15.7447 36.7186 15.7447C36.7186 15.7447 27.2265 24.065 31.6796 37.8931C20.7812 33.9087 5.19521 28.4009 4.60928 28.2837C3.78896 28.1665 3.55459 28.5181 3.55459 28.5181C3.55459 28.5181 3.32021 28.8697 4.02334 29.4556C5.3124 30.5103 29.9218 48.6744 35.3124 52.19C34.1405 56.4087 34.1405 58.4009 35.3124 60.3931C36.953 63.0884 37.0702 64.4947 36.8358 66.4869C36.6015 68.479 34.4921 85.7056 34.0233 87.815C33.5546 89.9244 28.6327 97.4244 28.8671 99.6509C29.1015 101.877 32.1483 111.37 34.8436 112.424C36.8358 113.127 41.7577 114.651 45.039 114.651C46.2108 114.651 47.2655 114.417 47.7343 113.948C49.7265 112.19 50.3124 111.838 51.7186 111.838C51.8358 111.838 51.953 111.838 52.0702 111.838C52.6562 111.838 53.3593 111.956 54.1796 111.956C56.0546 111.956 58.5155 111.604 60.2733 109.963C62.8515 107.385 67.3046 103.87 68.7108 102.229C70.4686 100.002 71.4062 96.9556 70.9374 93.9087C70.5858 91.0962 72.1093 88.6353 73.8671 86.1744C76.0936 83.2447 80.1952 77.9712 80.1952 77.9712C88.2811 84.065 93.3202 93.3228 93.3202 103.635C93.3202 121.917 77.3827 136.682 57.6952 136.682C54.6483 136.682 51.7186 136.331 48.789 135.627C57.8124 138.792 65.4296 139.846 71.6405 139.846C84.8827 139.846 91.914 135.042 91.914 135.042C91.914 135.042 89.453 138.206 85.4686 141.838C85.5858 141.838 85.5858 141.838 85.5858 141.838C107.5 138.792 118.164 120.745 118.164 120.745C118.164 120.745 117.344 126.604 116.289 130.588C145.469 108.674 140.547 81.2525 140.43 80.315C140.664 80.6665 143.594 84.1822 145.117 86.0572C149.805 37.7759 110.312 22.19 110.312 22.19ZM65.4296 99.2993C64.9608 99.8853 62.9686 101.643 61.5624 102.932C60.1561 104.221 58.6327 105.51 57.4608 106.682C56.9921 107.151 56.0546 107.385 54.6483 107.385C54.1796 107.385 53.7108 107.385 53.3593 107.385C53.1249 107.385 52.8905 107.385 52.6562 107.385C52.4218 107.385 52.3046 107.385 52.1874 107.385C51.8358 107.385 51.4843 107.385 51.1327 107.385C52.8905 105.042 58.0468 99.6509 59.8046 98.479C61.914 97.0728 62.9686 95.6665 61.6796 93.2056C60.3905 90.7447 56.9921 91.3306 56.9921 91.3306C56.9921 91.3306 58.9843 90.5103 60.7421 90.5103C58.5155 89.9243 55.703 90.5103 54.414 91.7994C53.0077 93.0884 53.2421 97.6587 52.6562 100.588C52.0702 103.635 50.078 105.159 47.0311 107.971C45.3905 109.495 44.2187 109.963 43.2812 109.963C41.289 109.612 38.9452 109.026 37.3046 108.44C36.1327 106.917 34.3749 101.877 33.9061 99.7681C34.2577 98.5962 35.664 96.1353 36.3671 94.729C37.7733 92.0337 38.5936 90.5103 38.828 89.104C39.2968 87.1119 40.8202 74.8072 41.4062 69.6509C42.9296 71.6431 45.039 74.9244 44.5702 77.0337C47.9687 72.229 45.5077 67.5415 44.3358 65.6665C43.2812 63.7915 41.8749 60.0415 43.0468 56.0572C44.2187 52.0728 48.4374 41.0572 48.4374 41.0572C48.4374 41.0572 49.8437 43.5181 51.8358 43.0494C53.828 42.5806 69.8827 18.44 69.8827 18.44C69.8827 18.44 74.2187 27.9322 69.6483 34.8462C64.9608 41.7603 60.3905 43.0494 60.3905 43.0494C60.3905 43.0494 66.8358 44.2212 72.8124 39.8853C75.2733 45.6275 77.6171 51.604 77.7343 52.4244C77.3827 53.2447 72.6952 64.4947 72.2265 65.1978C71.9921 65.4322 70.3515 65.9009 69.1796 66.1353C67.1874 66.7212 66.0155 67.0728 65.5468 67.4244C64.7265 68.1275 60.9765 78.44 59.2186 83.479C57.1093 84.065 54.9999 85.2368 53.4765 87.5806C54.2968 86.9947 56.8749 86.6431 58.7499 86.4087C60.3905 86.2915 65.4296 88.9868 66.7187 94.0259C66.7187 94.1431 66.7187 94.1431 66.7187 94.2603C66.953 96.1353 66.3671 97.8931 65.4296 99.2993ZM54.414 100.706C55.4687 99.1822 55.3515 96.604 55.4686 95.7837C55.5858 94.9634 55.8202 93.44 56.7577 93.2056C57.6952 92.9712 59.9218 93.3228 59.9218 94.9634C59.9218 96.4869 58.2812 96.8384 57.1093 97.8931C56.289 98.7134 54.6483 100.471 54.414 100.706ZM101.172 78.3228C102.344 72.3462 102.461 67.19 102.109 62.9712C106.68 69.065 109.492 76.4478 110.312 84.065C110.43 85.0025 111.367 85.94 112.305 86.8775C113.125 87.5806 114.062 88.5181 114.062 89.104C114.062 91.7994 113.828 94.4947 113.359 97.19C113.242 97.5415 112.187 98.1275 111.367 98.5962C110.195 99.1822 109.141 99.7681 108.906 100.706C106.328 109.729 100.82 117.698 93.4374 123.323C104.336 111.956 109.609 93.2056 101.172 78.3228ZM93.789 124.377C101.406 118.518 107.266 110.315 109.844 101.057C109.961 100.706 111.016 100.12 111.719 99.6509C112.891 99.065 114.062 98.3619 114.297 97.4243C114.766 94.729 115 91.9165 115 89.104C115 88.0494 113.945 86.9947 112.891 85.94C112.305 85.2369 111.367 84.4165 111.367 83.8306C110.43 75.2759 107.031 67.19 101.758 60.5103C99.414 46.4478 90.0389 42.1119 89.8046 41.9947C90.0389 42.3462 96.1327 51.1353 91.914 61.4478C87.578 71.8775 76.4452 70.2369 75.5077 70.354C74.5702 70.354 70.9374 75.0415 66.3671 83.7134C65.7811 83.479 63.3202 82.8931 60.5077 83.3618C62.6171 77.5025 65.7811 69.1822 66.3671 68.479C66.6015 68.2447 68.3593 67.7759 69.5311 67.4244C71.7577 66.8384 72.8124 66.4869 73.164 66.0181C73.3983 65.6665 74.5702 62.9712 75.7421 60.1587C76.7968 60.1587 79.4921 59.9244 79.7265 59.8072C79.9608 59.5728 82.1874 53.8306 82.1874 53.1275C82.1874 52.5415 77.6171 41.1744 75.8593 36.8384C76.6796 35.9009 77.4999 34.729 78.3202 33.44C102.344 36.0181 121.094 56.4087 121.094 81.1353C121.094 100.12 109.961 116.643 93.789 124.377Z" fill="#1B314F"/>
    <path d="M62.6171 61.0962C64.8437 58.5181 63.6718 53.7134 59.5702 52.8931C60.6249 50.4321 62.1483 45.5103 62.1483 45.5103C62.1483 45.5103 50.1952 64.2602 49.1405 64.6118C48.0858 64.9634 47.0312 60.8618 47.0312 60.8618C44.8046 69.4165 50.7812 70.5884 51.4843 67.8931C54.7655 67.0728 60.3905 63.5571 62.6171 61.0962Z" fill="#1B314F"/>
    <path d="M52.4219 65.6668L58.5156 55.2371C58.5156 55.2371 62.0312 56.9949 60.2734 59.8074C58.0469 63.0887 52.4219 65.6668 52.4219 65.6668Z" fill="#FFD923"/>
    <path d="M127.773 113.948C126.015 116.292 124.023 118.753 121.679 121.096C136.797 92.0339 122.383 65.4323 121.797 64.3776C122.851 65.4323 123.906 66.6042 124.844 67.6588C136.445 80.5495 137.851 99.8854 127.773 113.948Z" fill="#D82122"/>
    <path d="M141.836 76.5651C136.562 62.3854 129.062 50.3151 112.539 39.4166C96.6014 28.8697 79.492 29.6901 78.5545 29.8072C78.4373 29.8072 78.3201 29.8072 78.3201 29.8072C78.906 29.5729 79.492 29.4557 80.0779 29.3385C83.7107 28.1666 88.3982 27.2291 93.0857 26.6432C105.508 24.8854 118.047 29.1041 126.601 38.1276C126.719 38.2447 126.719 38.2447 126.836 38.3619C136.562 48.6744 141.601 61.5651 141.836 76.5651Z" fill="#D82122"/>
    <path d="M108.789 18.5575C91.3279 15.2763 80.0779 16.9169 71.992 19.9638C71.7576 19.0263 70.9373 17.1513 70.2342 15.6279C67.7732 18.5575 65.1951 22.0732 63.5545 24.2997C59.1014 27.3466 57.2264 30.2763 57.2264 30.2763C59.8045 21.4872 67.3045 14.9247 76.4451 13.2841C79.0232 12.8154 81.8357 12.581 84.8826 12.581C92.9686 12.6982 101.054 14.6904 108.789 18.5575Z" fill="#D82122"/>
    <path d="M44.2186 41.0575C30.5077 40.5888 35.078 24.6513 35.3124 23.7138C35.3124 23.831 36.2499 36.2529 44.2186 41.0575Z" fill="#D82122"/>
    <path d="M57.6951 12.3464C47.1483 18.6746 49.2576 33.7917 49.2576 33.7917C39.1795 18.4402 56.8748 12.698 57.6951 12.3464Z" fill="#D82122"/>
    <path d="M40.3516 45.2759C41.0547 45.8619 41.7578 46.9166 40.9375 48.44C40.4688 49.2603 39.7656 49.1431 38.7109 48.6744C37.3047 47.9713 28.8672 43.0494 21.25 38.0103C29.9219 41.0572 38.7109 44.3384 40.1172 45.0416C40.1172 45.0416 40.2344 45.1588 40.3516 45.2759Z" fill="white"/>
    <path d="M163.001 36H178.001V96H193.001V21H178.001C169.751 21 163.001 27.75 163.001 36Z" fill="white"/>
    <path d="M208.001 96H223.001V66C223.001 57.75 216.251 51 208.001 51V96Z" fill="white"/>
    <path d="M238.001 51V96H253.001V66H268.001V81C268.001 89.25 274.751 96 283.001 96V66C283.001 57.75 276.251 51 268.001 51H238.001Z" fill="white"/>
    <path d="M373.001 51H358.001V36C358.001 27.75 351.251 21 343.001 21V81H313.001V66H328.001V51H313.001C304.751 51 298.001 57.75 298.001 66V81C298.001 89.25 304.751 96 313.001 96H358.001V66H373.001V81C373.001 89.25 379.751 96 388.001 96V66C388.001 57.75 381.251 51 373.001 51Z" fill="white"/>
    <path d="M208.001 36H223.001C223.001 27.75 216.251 21 208.001 21V36Z" fill="white"/>
    <path fill-rule="evenodd" clip-rule="evenodd" d="M186.386 112V121.816H185.012L179.613 115.015V121.816H178V112H179.374L184.773 118.829V112H186.386ZM216.899 121.816H211.079V112H216.758V113.613H212.804V116.053H216.338V117.666H212.804V120.204H216.899V121.816ZM241.591 113.613H244.775V121.816H246.5V113.613H249.683V112H241.591V113.613ZM286.394 112H288.048L285.244 121.816H283.631L281.261 114.721L278.933 121.816H277.306L274.375 112H276.311L278.288 118.998L280.476 112H282.187L284.43 119.012L286.394 112ZM314.172 113.458C313.218 114.431 312.741 115.632 312.741 117.063C312.741 118.568 313.223 119.788 314.186 120.723C315.149 121.658 316.369 122.125 317.846 122.125C319.314 122.125 320.534 121.648 321.506 120.695C322.478 119.741 322.964 118.53 322.964 117.063C322.964 115.567 322.478 114.347 321.506 113.402C320.543 112.467 319.323 112 317.846 112C316.369 112 315.144 112.486 314.172 113.458ZM315.504 119.531C314.877 118.876 314.564 118.054 314.564 117.063C314.564 116.053 314.873 115.225 315.49 114.58C316.116 113.935 316.902 113.613 317.846 113.613C318.771 113.613 319.552 113.935 320.188 114.58C320.823 115.235 321.141 116.062 321.141 117.063C321.141 118.054 320.842 118.876 320.244 119.531C319.655 120.185 318.855 120.512 317.846 120.512C316.911 120.512 316.13 120.185 315.504 119.531ZM349.382 118.17V121.845H347.657V112.028C348.143 112.028 348.672 112.023 349.242 112.014C349.812 112.005 350.28 112 350.644 112C353.019 112 354.206 113.01 354.206 115.029C354.206 115.777 354.015 116.394 353.631 116.88C353.248 117.348 352.808 117.666 352.313 117.834L355.384 121.845H353.295L350.588 118.17H349.382ZM350.56 113.613C350.513 113.613 350.439 113.617 350.336 113.627C350.233 113.627 350.088 113.631 349.901 113.641H349.382V116.558H350.504C351.056 116.558 351.504 116.422 351.85 116.151C352.205 115.88 352.383 115.511 352.383 115.043C352.383 114.09 351.775 113.613 350.56 113.613ZM380.076 121.816H381.801V116.754L385.812 121.816H388L383.709 116.572L387.747 112H385.672L381.801 116.656V112H380.076V121.816Z" fill="#2F7AEA"/>
    <path d="M178.002 140.355V132.142H179.075V139.845C179.075 140.686 179.312 141.106 179.786 141.106C180.018 141.106 180.273 141.011 180.55 140.822L180.792 141.686C180.407 142.007 179.933 142.168 179.37 142.168C178.458 142.168 178.002 141.564 178.002 140.355Z" fill="#1B314F"/>
    <path d="M183.18 141.261C182.59 140.619 182.294 139.822 182.294 138.868C182.294 137.905 182.59 137.112 183.18 136.489C183.779 135.857 184.557 135.54 185.514 135.54C186.47 135.54 187.244 135.857 187.834 136.489C188.433 137.112 188.733 137.905 188.733 138.868C188.733 139.831 188.433 140.629 187.834 141.261C187.244 141.885 186.47 142.196 185.514 142.196C184.566 142.196 183.788 141.885 183.18 141.261ZM184.025 137.24C183.631 137.655 183.435 138.198 183.435 138.868C183.435 139.538 183.627 140.081 184.011 140.497C184.405 140.922 184.906 141.134 185.514 141.134C186.122 141.134 186.618 140.926 187.002 140.511C187.396 140.086 187.593 139.538 187.593 138.868C187.593 138.217 187.396 137.674 187.002 137.24C186.618 136.815 186.122 136.602 185.514 136.602C184.906 136.602 184.409 136.815 184.025 137.24Z" fill="#1B314F"/>
    <path d="M191.408 137.027L191.126 136.121C191.725 135.734 192.396 135.54 193.138 135.54C193.952 135.54 194.542 135.753 194.909 136.178C195.275 136.602 195.458 137.259 195.458 138.146V142.054H194.439V141.233C193.965 141.847 193.321 142.154 192.508 142.154C191.953 142.154 191.506 141.979 191.166 141.63C190.826 141.271 190.657 140.789 190.657 140.185C190.657 139.562 190.867 139.071 191.287 138.712C191.707 138.344 192.257 138.16 192.937 138.16C193.572 138.16 194.072 138.297 194.439 138.571C194.439 137.853 194.345 137.339 194.157 137.027C193.97 136.716 193.607 136.56 193.071 136.56C192.525 136.56 191.971 136.716 191.408 137.027ZM192.883 141.134C193.482 141.134 194.001 140.86 194.439 140.313V139.505C194.063 139.222 193.612 139.081 193.084 139.081C192.718 139.081 192.409 139.175 192.159 139.364C191.917 139.543 191.797 139.798 191.797 140.129C191.797 140.44 191.891 140.686 192.078 140.865C192.275 141.044 192.543 141.134 192.883 141.134Z" fill="#1B314F"/>
    <path d="M203.559 142.054H202.486V141.247C201.95 141.861 201.311 142.168 200.568 142.168C199.683 142.168 198.977 141.87 198.449 141.276C197.921 140.671 197.658 139.883 197.658 138.911C197.658 137.919 197.966 137.112 198.583 136.489C199.209 135.857 200.001 135.54 200.957 135.54C201.565 135.54 202.075 135.691 202.486 135.993V132.142H203.559V142.054ZM200.77 141.106C201.431 141.106 202.004 140.822 202.486 140.256V137.098C201.986 136.768 201.489 136.602 200.998 136.602C200.381 136.602 199.857 136.815 199.428 137.24C199.008 137.655 198.798 138.203 198.798 138.882C198.798 139.562 198.977 140.105 199.334 140.511C199.701 140.907 200.179 141.106 200.77 141.106Z" fill="#1B314F"/>
    <path d="M207.66 142.054H206.587V135.682H207.66V142.054ZM206.453 133.289C206.453 133.09 206.52 132.93 206.654 132.807C206.788 132.675 206.954 132.609 207.15 132.609C207.338 132.609 207.495 132.675 207.62 132.807C207.745 132.93 207.808 133.09 207.808 133.289C207.808 133.506 207.745 133.685 207.62 133.827C207.495 133.959 207.338 134.025 207.15 134.025C206.954 134.025 206.788 133.959 206.654 133.827C206.52 133.685 206.453 133.506 206.453 133.289Z" fill="#1B314F"/>
    <path d="M211.759 142.054H210.686V135.682H211.759V136.461C211.982 136.196 212.273 135.984 212.631 135.824C212.997 135.654 213.364 135.569 213.73 135.569C215.403 135.569 216.239 136.503 216.239 138.373V142.054H215.166V138.585C215.166 137.282 214.598 136.631 213.462 136.631C212.783 136.631 212.215 136.905 211.759 137.452V142.054Z" fill="#1B314F"/>
    <path d="M218.02 142.975C218.02 142.484 218.19 142.073 218.53 141.743C218.87 141.412 219.344 141.176 219.952 141.035C219.853 140.903 219.804 140.728 219.804 140.511C219.804 140.294 219.858 140.114 219.965 139.973C219.536 139.793 219.201 139.52 218.959 139.151C218.727 138.783 218.611 138.358 218.611 137.877C218.611 137.216 218.834 136.664 219.281 136.22C219.737 135.767 220.336 135.54 221.079 135.54C221.651 135.54 222.161 135.696 222.608 136.008L224.378 135.554L224.405 136.475L223.265 136.772C223.453 137.103 223.547 137.471 223.547 137.877C223.547 138.528 223.319 139.076 222.862 139.52C222.415 139.954 221.821 140.171 221.079 140.171C220.873 140.171 220.739 140.166 220.676 140.157C220.631 140.27 220.609 140.388 220.609 140.511C220.609 140.681 220.649 140.822 220.73 140.936C220.748 140.936 220.801 140.936 220.891 140.936C220.989 140.926 221.056 140.922 221.092 140.922C222.031 140.922 222.778 141.101 223.332 141.46C223.886 141.809 224.164 142.314 224.164 142.975C224.164 143.617 223.886 144.113 223.332 144.462C222.778 144.821 222.031 145 221.092 145C220.144 145 219.393 144.825 218.839 144.476C218.293 144.136 218.02 143.636 218.02 142.975ZM223.158 142.975C223.158 142.626 222.974 142.347 222.608 142.139C222.241 141.941 221.736 141.842 221.092 141.842C220.448 141.842 219.943 141.941 219.576 142.139C219.21 142.347 219.026 142.626 219.026 142.975C219.026 143.324 219.21 143.593 219.576 143.782C219.943 143.98 220.448 144.08 221.092 144.08C221.736 144.08 222.241 143.985 222.608 143.796C222.974 143.607 223.158 143.334 223.158 142.975ZM219.617 137.877C219.617 138.273 219.751 138.604 220.019 138.868C220.296 139.123 220.649 139.251 221.079 139.251C221.508 139.251 221.857 139.123 222.125 138.868C222.402 138.613 222.541 138.283 222.541 137.877C222.541 137.471 222.406 137.136 222.138 136.871C221.861 136.598 221.508 136.461 221.079 136.461C220.649 136.461 220.296 136.598 220.019 136.871C219.751 137.136 219.617 137.471 219.617 137.877Z" fill="#1B314F"/>
    <path d="M230.102 140.355V132.142H231.175V139.845C231.175 140.686 231.412 141.106 231.886 141.106C232.119 141.106 232.374 141.011 232.651 140.822L232.892 141.686C232.508 142.007 232.034 142.168 231.47 142.168C230.558 142.168 230.102 141.564 230.102 140.355Z" fill="#1B314F"/>
    <path d="M235.119 137.027L234.838 136.121C235.437 135.734 236.107 135.54 236.85 135.54C237.663 135.54 238.253 135.753 238.62 136.178C238.987 136.602 239.17 137.259 239.17 138.146V142.054H238.151V141.233C237.677 141.847 237.033 142.154 236.219 142.154C235.665 142.154 235.218 141.979 234.878 141.63C234.538 141.271 234.368 140.789 234.368 140.185C234.368 139.562 234.578 139.071 234.999 138.712C235.419 138.344 235.969 138.16 236.648 138.16C237.283 138.16 237.784 138.297 238.151 138.571C238.151 137.853 238.057 137.339 237.869 137.027C237.681 136.716 237.319 136.56 236.782 136.56C236.237 136.56 235.683 136.716 235.119 137.027ZM236.595 141.134C237.194 141.134 237.712 140.86 238.151 140.313V139.505C237.775 139.222 237.323 139.081 236.796 139.081C236.429 139.081 236.121 139.175 235.87 139.364C235.629 139.543 235.508 139.798 235.508 140.129C235.508 140.44 235.602 140.686 235.79 140.865C235.987 141.044 236.255 141.134 236.595 141.134Z" fill="#1B314F"/>
    <path d="M241.638 139.633V133.912H242.711V135.682H244.924V136.744H242.711V139.52C242.711 140.577 243.068 141.106 243.784 141.106C244.132 141.106 244.45 140.988 244.736 140.752L245.071 141.63C244.651 141.988 244.137 142.168 243.529 142.168C242.876 142.168 242.398 141.96 242.094 141.545C241.79 141.129 241.638 140.492 241.638 139.633Z" fill="#1B314F"/>
    <path d="M251.831 140.468L252.166 141.361C251.585 141.918 250.829 142.196 249.899 142.196C248.916 142.196 248.133 141.894 247.552 141.29C246.962 140.686 246.667 139.878 246.667 138.868C246.667 137.915 246.944 137.122 247.499 136.489C248.044 135.857 248.804 135.54 249.779 135.54C250.584 135.54 251.25 135.814 251.777 136.362C252.314 136.9 252.582 137.598 252.582 138.458C252.582 138.731 252.56 138.986 252.515 139.222H247.874C247.919 139.817 248.129 140.284 248.505 140.624C248.889 140.964 249.381 141.134 249.98 141.134C250.767 141.134 251.384 140.912 251.831 140.468ZM249.725 136.602C249.198 136.602 248.759 136.758 248.411 137.07C248.071 137.381 247.87 137.792 247.807 138.302H251.469C251.442 137.773 251.272 137.358 250.959 137.056C250.655 136.753 250.244 136.602 249.725 136.602Z" fill="#1B314F"/>
    <path d="M257.901 140.327C257.901 140.1 257.789 139.911 257.565 139.76C257.342 139.609 257.069 139.487 256.747 139.392C256.434 139.288 256.117 139.17 255.795 139.038C255.473 138.906 255.2 138.698 254.977 138.415C254.753 138.122 254.641 137.764 254.641 137.339C254.641 136.801 254.829 136.366 255.205 136.036C255.58 135.706 256.077 135.54 256.694 135.54C257.579 135.54 258.272 135.79 258.773 136.291L258.263 137.155C257.816 136.739 257.311 136.532 256.747 136.532C256.461 136.532 256.229 136.607 256.05 136.758C255.871 136.909 255.782 137.098 255.782 137.325C255.782 137.57 255.893 137.773 256.117 137.934C256.34 138.085 256.609 138.212 256.922 138.316C257.244 138.41 257.565 138.524 257.887 138.656C258.209 138.779 258.482 138.977 258.706 139.251C258.929 139.524 259.041 139.864 259.041 140.27C259.041 140.903 258.817 141.384 258.37 141.715C257.932 142.036 257.378 142.196 256.707 142.196C256.233 142.196 255.782 142.092 255.352 141.885C254.914 141.667 254.624 141.441 254.48 141.205L255.084 140.398C255.263 140.615 255.522 140.804 255.862 140.964C256.22 141.125 256.542 141.205 256.828 141.205C257.141 141.205 257.396 141.129 257.592 140.978C257.798 140.818 257.901 140.601 257.901 140.327Z" fill="#1B314F"/>
    <path d="M261.277 139.633V133.912H262.35V135.682H264.563V136.744H262.35V139.52C262.35 140.577 262.707 141.106 263.423 141.106C263.772 141.106 264.089 140.988 264.375 140.752L264.71 141.63C264.29 141.988 263.776 142.168 263.168 142.168C262.515 142.168 262.037 141.96 261.733 141.545C261.429 141.129 261.277 140.492 261.277 139.633Z" fill="#1B314F"/>
    <path d="M274.973 135.682H276.114L273.444 142.111H272.666L269.863 135.682H271.124L272.586 139.123C272.756 139.52 272.926 139.992 273.096 140.539C273.221 140.095 273.386 139.614 273.592 139.095L274.973 135.682Z" fill="#1B314F"/>
    <path d="M282.472 140.468L282.807 141.361C282.226 141.918 281.47 142.196 280.54 142.196C279.556 142.196 278.774 141.894 278.193 141.29C277.603 140.686 277.307 139.878 277.307 138.868C277.307 137.915 277.585 137.122 278.139 136.489C278.685 135.857 279.445 135.54 280.419 135.54C281.224 135.54 281.89 135.814 282.418 136.362C282.954 136.9 283.223 137.598 283.223 138.458C283.223 138.731 283.2 138.986 283.156 139.222H278.515C278.559 139.817 278.77 140.284 279.145 140.624C279.53 140.964 280.021 141.134 280.621 141.134C281.407 141.134 282.024 140.912 282.472 140.468ZM280.366 136.602C279.838 136.602 279.4 136.758 279.051 137.07C278.711 137.381 278.51 137.792 278.448 138.302H282.109C282.083 137.773 281.913 137.358 281.6 137.056C281.296 136.753 280.884 136.602 280.366 136.602Z" fill="#1B314F"/>
    <path d="M286.556 142.054H285.483V135.682H286.556V136.432C286.914 135.857 287.419 135.569 288.072 135.569C288.492 135.569 288.805 135.649 289.011 135.809L288.635 136.871C288.376 136.711 288.103 136.631 287.817 136.631C287.272 136.631 286.851 136.933 286.556 137.537V142.054Z" fill="#1B314F"/>
    <path d="M293.905 140.327C293.905 140.1 293.793 139.911 293.569 139.76C293.346 139.609 293.073 139.487 292.751 139.392C292.438 139.288 292.121 139.17 291.799 139.038C291.477 138.906 291.204 138.698 290.98 138.415C290.757 138.122 290.645 137.764 290.645 137.339C290.645 136.801 290.833 136.366 291.209 136.036C291.584 135.706 292.08 135.54 292.697 135.54C293.583 135.54 294.276 135.79 294.776 136.291L294.267 137.155C293.82 136.739 293.314 136.532 292.751 136.532C292.465 136.532 292.232 136.607 292.054 136.758C291.875 136.909 291.785 137.098 291.785 137.325C291.785 137.57 291.897 137.773 292.121 137.934C292.344 138.085 292.612 138.212 292.925 138.316C293.247 138.41 293.569 138.524 293.891 138.656C294.213 138.779 294.486 138.977 294.709 139.251C294.933 139.524 295.045 139.864 295.045 140.27C295.045 140.903 294.821 141.384 294.374 141.715C293.936 142.036 293.381 142.196 292.711 142.196C292.237 142.196 291.785 142.092 291.356 141.885C290.918 141.667 290.627 141.441 290.484 141.205L291.088 140.398C291.267 140.615 291.526 140.804 291.866 140.964C292.223 141.125 292.545 141.205 292.831 141.205C293.144 141.205 293.399 141.129 293.596 140.978C293.802 140.818 293.905 140.601 293.905 140.327Z" fill="#1B314F"/>
    <path d="M298.783 142.054H297.71V135.682H298.783V142.054ZM297.576 133.289C297.576 133.09 297.643 132.93 297.777 132.807C297.911 132.675 298.076 132.609 298.273 132.609C298.461 132.609 298.617 132.675 298.742 132.807C298.868 132.93 298.93 133.09 298.93 133.289C298.93 133.506 298.868 133.685 298.742 133.827C298.617 133.959 298.461 134.025 298.273 134.025C298.076 134.025 297.911 133.959 297.777 133.827C297.643 133.685 297.576 133.506 297.576 133.289Z" fill="#1B314F"/>
    <path d="M302.291 141.261C301.701 140.619 301.406 139.822 301.406 138.868C301.406 137.905 301.701 137.112 302.291 136.489C302.89 135.857 303.668 135.54 304.625 135.54C305.582 135.54 306.355 135.857 306.946 136.489C307.545 137.112 307.844 137.905 307.844 138.868C307.844 139.831 307.545 140.629 306.946 141.261C306.355 141.885 305.582 142.196 304.625 142.196C303.677 142.196 302.899 141.885 302.291 141.261ZM303.136 137.24C302.743 137.655 302.546 138.198 302.546 138.868C302.546 139.538 302.738 140.081 303.123 140.497C303.516 140.922 304.017 141.134 304.625 141.134C305.233 141.134 305.73 140.926 306.114 140.511C306.507 140.086 306.704 139.538 306.704 138.868C306.704 138.217 306.507 137.674 306.114 137.24C305.73 136.815 305.233 136.602 304.625 136.602C304.017 136.602 303.521 136.815 303.136 137.24Z" fill="#1B314F"/>
    <path d="M311.27 142.054H310.197V135.682H311.27V136.461C311.494 136.196 311.785 135.984 312.142 135.824C312.509 135.654 312.876 135.569 313.242 135.569C314.914 135.569 315.75 136.503 315.75 138.373V142.054H314.677V138.585C314.677 137.282 314.11 136.631 312.974 136.631C312.294 136.631 311.726 136.905 311.27 137.452V142.054Z" fill="#1B314F"/>
    <path d="M322.664 141.261C322.074 140.619 321.779 139.822 321.779 138.868C321.779 137.905 322.074 137.112 322.664 136.489C323.263 135.857 324.041 135.54 324.998 135.54C325.955 135.54 326.728 135.857 327.318 136.489C327.917 137.112 328.217 137.905 328.217 138.868C328.217 139.831 327.917 140.629 327.318 141.261C326.728 141.885 325.955 142.196 324.998 142.196C324.05 142.196 323.272 141.885 322.664 141.261ZM323.509 137.24C323.116 137.655 322.919 138.198 322.919 138.868C322.919 139.538 323.111 140.081 323.496 140.497C323.889 140.922 324.39 141.134 324.998 141.134C325.606 141.134 326.102 140.926 326.487 140.511C326.88 140.086 327.077 139.538 327.077 138.868C327.077 138.217 326.88 137.674 326.487 137.24C326.102 136.815 325.606 136.602 324.998 136.602C324.39 136.602 323.894 136.815 323.509 137.24Z" fill="#1B314F"/>
    <path d="M331.777 142.054H330.704V134.648C330.704 133.78 330.888 133.123 331.254 132.68C331.621 132.227 332.144 132 332.824 132C333.53 132 334.066 132.189 334.433 132.566L334.058 133.43C333.771 133.185 333.418 133.062 332.998 133.062C332.184 133.062 331.777 133.633 331.777 134.776V135.682H333.789V136.744H331.777V142.054Z" fill="#1B314F"/>
    <path d="M339.687 134.846L339.123 133.926L341.377 132.085H342.128V142.054H341.055V133.714L339.687 134.846Z" fill="#1B314F"/>
    <path d="M346.875 142.054H345.802V135.682H346.875V142.054ZM345.668 133.289C345.668 133.09 345.735 132.93 345.869 132.807C346.003 132.675 346.169 132.609 346.365 132.609C346.553 132.609 346.71 132.675 346.835 132.807C346.96 132.93 347.023 133.09 347.023 133.289C347.023 133.506 346.96 133.685 346.835 133.827C346.71 133.959 346.553 134.025 346.365 134.025C346.169 134.025 346.003 133.959 345.869 133.827C345.735 133.685 345.668 133.506 345.668 133.289Z" fill="#1B314F"/>
    <path d="M350.974 142.054H349.901V135.682H350.974V136.461C351.197 136.196 351.488 135.984 351.846 135.824C352.212 135.654 352.579 135.569 352.945 135.569C354.618 135.569 355.454 136.503 355.454 138.373V142.054H354.381V138.585C354.381 137.282 353.813 136.631 352.677 136.631C351.998 136.631 351.43 136.905 350.974 137.452V142.054Z" fill="#1B314F"/>
    <path d="M362.708 140.313L363.218 141.134C362.699 141.842 361.925 142.196 360.897 142.196C359.931 142.196 359.149 141.894 358.55 141.29C357.96 140.686 357.665 139.878 357.665 138.868C357.665 137.934 357.955 137.145 358.536 136.503C359.118 135.861 359.846 135.54 360.723 135.54C361.778 135.54 362.569 135.819 363.097 136.376L362.601 137.268C362.136 136.824 361.559 136.602 360.87 136.602C360.307 136.602 359.82 136.82 359.408 137.254C359.006 137.679 358.805 138.217 358.805 138.868C358.805 139.557 359.01 140.105 359.422 140.511C359.842 140.926 360.361 141.134 360.978 141.134C361.675 141.134 362.252 140.86 362.708 140.313Z" fill="#1B314F"/>
    <path d="M366.494 142.054H365.421V132.142H366.494V136.418C367.031 135.852 367.688 135.569 368.466 135.569C370.138 135.569 370.974 136.513 370.974 138.401V142.054H369.901V138.557C369.901 137.273 369.338 136.631 368.211 136.631C367.898 136.631 367.581 136.706 367.259 136.857C366.946 137.008 366.691 137.202 366.494 137.438V142.054Z" fill="#1B314F"/>
    <path d="M376.507 141.29C376.507 141.092 376.579 140.917 376.722 140.766C376.874 140.615 377.057 140.539 377.272 140.539C377.46 140.539 377.625 140.615 377.768 140.766C377.911 140.917 377.983 141.092 377.983 141.29C377.983 141.516 377.916 141.71 377.782 141.87C377.647 142.021 377.478 142.097 377.272 142.097C377.057 142.097 376.874 142.021 376.722 141.87C376.579 141.71 376.507 141.516 376.507 141.29Z" fill="#1B314F"/>
    <path d="M381.517 141.29C381.517 141.092 381.588 140.917 381.731 140.766C381.883 140.615 382.067 140.539 382.281 140.539C382.469 140.539 382.635 140.615 382.778 140.766C382.921 140.917 382.992 141.092 382.992 141.29C382.992 141.516 382.925 141.71 382.791 141.87C382.657 142.021 382.487 142.097 382.281 142.097C382.067 142.097 381.883 142.021 381.731 141.87C381.588 141.71 381.517 141.516 381.517 141.29Z" fill="#1B314F"/>
    <path d="M386.526 141.29C386.526 141.092 386.598 140.917 386.741 140.766C386.893 140.615 387.076 140.539 387.291 140.539C387.479 140.539 387.644 140.615 387.787 140.766C387.93 140.917 388.002 141.092 388.002 141.29C388.002 141.516 387.935 141.71 387.801 141.87C387.666 142.021 387.496 142.097 387.291 142.097C387.076 142.097 386.893 142.021 386.741 141.87C386.598 141.71 386.526 141.516 386.526 141.29Z" fill="#1B314F"/>
</svg>
